<svg width="84" height="30" viewBox="0 0 84 30" fill="none" xmlns="http://www.w3.org/2000/svg">
<path d="M0.2 1.28H6.44V29H0.2V1.28ZM33.4163 1.28V6.6H25.0563V29H18.8163V6.6H10.4563V1.28H33.4163ZM49.1291 29.56C44.6224 29.56 41.1824 28.3067 38.8091 25.8C36.4624 23.2933 35.2891 19.7333 35.2891 15.12C35.2891 12.8267 35.6491 10.7867 36.3691 9C37.0891 7.18667 38.0757 5.66667 39.3291 4.44C40.5824 3.18667 42.0757 2.24 43.8091 1.6C45.5424 0.959998 47.4224 0.639998 49.4491 0.639998C50.6224 0.639998 51.6891 0.733332 52.6491 0.919999C53.6091 1.08 54.4491 1.28 55.1691 1.52C55.8891 1.73333 56.4891 1.96 56.9691 2.2C57.4491 2.44 57.7957 2.62667 58.0091 2.76L56.2091 7.8C55.3557 7.34666 54.3557 6.96 53.2091 6.64C52.0891 6.32 50.8091 6.16 49.3691 6.16C48.4091 6.16 47.4624 6.32 46.5291 6.64C45.6224 6.96 44.8091 7.48 44.0891 8.2C43.3957 8.89333 42.8357 9.8 42.4091 10.92C41.9824 12.04 41.7691 13.4 41.7691 15C41.7691 16.28 41.9024 17.48 42.1691 18.6C42.4624 19.6933 42.9157 20.64 43.5291 21.44C44.1691 22.24 44.9957 22.88 46.0091 23.36C47.0224 23.8133 48.2491 24.04 49.6891 24.04C50.5957 24.04 51.4091 23.9867 52.1291 23.88C52.8491 23.7733 53.4891 23.6533 54.0491 23.52C54.6091 23.36 55.1024 23.1867 55.5291 23C55.9557 22.8133 56.3424 22.64 56.6891 22.48L58.4091 27.48C57.5291 28.0133 56.2891 28.4933 54.6891 28.92C53.0891 29.3467 51.2357 29.56 49.1291 29.56ZM74.0509 29.56C69.5443 29.56 66.1043 28.3067 63.7309 25.8C61.3843 23.2933 60.2109 19.7333 60.2109 15.12C60.2109 12.8267 60.5709 10.7867 61.2909 9C62.0109 7.18667 62.9976 5.66667 64.2509 4.44C65.5043 3.18667 66.9976 2.24 68.7309 1.6C70.4643 0.959998 72.3443 0.639998 74.3709 0.639998C75.5443 0.639998 76.6109 0.733332 77.5709 0.919999C78.5309 1.08 79.3709 1.28 80.0909 1.52C80.8109 1.73333 81.4109 1.96 81.8909 2.2C82.3709 2.44 82.7176 2.62667 82.9309 2.76L81.1309 7.8C80.2776 7.34666 79.2776 6.96 78.1309 6.64C77.0109 6.32 75.7309 6.16 74.2909 6.16C73.3309 6.16 72.3843 6.32 71.4509 6.64C70.5443 6.96 69.7309 7.48 69.0109 8.2C68.3176 8.89333 67.7576 9.8 67.3309 10.92C66.9043 12.04 66.6909 13.4 66.6909 15C66.6909 16.28 66.8243 17.48 67.0909 18.6C67.3843 19.6933 67.8376 20.64 68.4509 21.44C69.0909 22.24 69.9176 22.88 70.9309 23.36C71.9443 23.8133 73.1709 24.04 74.6109 24.04C75.5176 24.04 76.3309 23.9867 77.0509 23.88C77.7709 23.7733 78.4109 23.6533 78.9709 23.52C79.5309 23.36 80.0243 23.1867 80.4509 23C80.8776 22.8133 81.2643 22.64 81.6109 22.48L83.3309 27.48C82.4509 28.0133 81.2109 28.4933 79.6109 28.92C78.0109 29.3467 76.1576 29.56 74.0509 29.56Z" fill="#0C1354"/>
</svg>
