<svg width="113" height="30" viewBox="0 0 113 30" fill="none" xmlns="http://www.w3.org/2000/svg">
<path d="M8.52 0.959999C12.6533 0.959999 15.8267 1.69333 18.04 3.16C20.2533 4.6 21.36 6.97333 21.36 10.28C21.36 13.6133 20.24 16.0267 18 17.52C15.76 18.9867 12.56 19.72 8.4 19.72H6.44V29H0.2V1.68C1.56 1.41333 3 1.22667 4.52 1.12C6.04 1.01333 7.37333 0.959999 8.52 0.959999ZM8.92 6.28C8.46667 6.28 8.01333 6.29333 7.56 6.32C7.13333 6.34667 6.76 6.37333 6.44 6.4V14.4H8.4C10.56 14.4 12.1867 14.1067 13.28 13.52C14.3733 12.9333 14.92 11.84 14.92 10.24C14.92 9.46667 14.7733 8.82667 14.48 8.32C14.2133 7.81333 13.8133 7.41333 13.28 7.12C12.7733 6.8 12.1467 6.58667 11.4 6.48C10.6533 6.34667 9.82667 6.28 8.92 6.28ZM41.7678 29C41.4745 28.04 41.1411 27.0533 40.7678 26.04C40.4211 25.0267 40.0745 24.0133 39.7278 23H28.9278C28.5811 24.0133 28.2211 25.0267 27.8478 26.04C27.5011 27.0533 27.1811 28.04 26.8878 29H20.4078C21.4478 26.0133 22.4345 23.2533 23.3678 20.72C24.3011 18.1867 25.2078 15.8 26.0878 13.56C26.9945 11.32 27.8745 9.2 28.7278 7.2C29.6078 5.17333 30.5145 3.2 31.4478 1.28H37.4078C38.3145 3.2 39.2078 5.17333 40.0878 7.2C40.9678 9.2 41.8478 11.32 42.7278 13.56C43.6345 15.8 44.5545 18.1867 45.4878 20.72C46.4211 23.2533 47.4078 26.0133 48.4478 29H41.7678ZM34.2878 7.56C34.1545 7.96 33.9545 8.50667 33.6878 9.2C33.4211 9.89333 33.1145 10.6933 32.7678 11.6C32.4211 12.5067 32.0345 13.5067 31.6078 14.6C31.2078 15.6933 30.7945 16.84 30.3678 18.04H38.2478C37.8211 16.84 37.4078 15.6933 37.0078 14.6C36.6078 13.5067 36.2211 12.5067 35.8478 11.6C35.5011 10.6933 35.1945 9.89333 34.9278 9.2C34.6611 8.50667 34.4478 7.96 34.2878 7.56ZM69.3147 1.28V6.6H60.9547V29H54.7147V6.6H46.3547V1.28H69.3147ZM73.325 1.28H79.565V29H73.325V1.28ZM91.2213 15.12C91.2213 16.48 91.3813 17.7067 91.7013 18.8C92.0479 19.8933 92.5279 20.84 93.1413 21.64C93.7813 22.4133 94.5546 23.0133 95.4613 23.44C96.3679 23.8667 97.4079 24.08 98.5813 24.08C99.7279 24.08 100.755 23.8667 101.661 23.44C102.595 23.0133 103.368 22.4133 103.981 21.64C104.621 20.84 105.101 19.8933 105.421 18.8C105.768 17.7067 105.941 16.48 105.941 15.12C105.941 13.76 105.768 12.5333 105.421 11.44C105.101 10.32 104.621 9.37333 103.981 8.6C103.368 7.8 102.595 7.18667 101.661 6.76C100.755 6.33333 99.7279 6.12 98.5813 6.12C97.4079 6.12 96.3679 6.34667 95.4613 6.8C94.5546 7.22667 93.7813 7.84 93.1413 8.64C92.5279 9.41333 92.0479 10.36 91.7013 11.48C91.3813 12.5733 91.2213 13.7867 91.2213 15.12ZM112.381 15.12C112.381 17.4933 112.021 19.5867 111.301 21.4C110.608 23.1867 109.648 24.6933 108.421 25.92C107.195 27.12 105.728 28.0267 104.021 28.64C102.341 29.2533 100.528 29.56 98.5813 29.56C96.6879 29.56 94.9013 29.2533 93.2213 28.64C91.5413 28.0267 90.0746 27.12 88.8213 25.92C87.5679 24.6933 86.5813 23.1867 85.8613 21.4C85.1413 19.5867 84.7813 17.4933 84.7813 15.12C84.7813 12.7467 85.1546 10.6667 85.9013 8.88C86.6479 7.06667 87.6479 5.54667 88.9013 4.32C90.1813 3.09333 91.6479 2.17333 93.3013 1.56C94.9813 0.946665 96.7413 0.639998 98.5813 0.639998C100.475 0.639998 102.261 0.946665 103.941 1.56C105.621 2.17333 107.088 3.09333 108.341 4.32C109.595 5.54667 110.581 7.06667 111.301 8.88C112.021 10.6667 112.381 12.7467 112.381 15.12Z" fill="#0C1354"/>
</svg>
